<?xml version="1.0" standalone="no"?>
<svg xmlns:xlink="http://www.w3.org/1999/xlink" id="wave" style="transform:rotate(0deg); transition: 0.3s" viewBox="0 0 1440 240" version="1.1" xmlns="http://www.w3.org/2000/svg"><defs><linearGradient id="sw-gradient-0" x1="0" x2="0" y1="1" y2="0"><stop stop-color="rgba(13, 29, 41, 1)" offset="0%"/><stop stop-color="rgba(13, 29, 41, 1)" offset="100%"/></linearGradient></defs><path style="transform:translate(0, 0px); opacity:1" fill="url(#sw-gradient-0)" d="M0,192L21.8,180C43.6,168,87,144,131,128C174.5,112,218,104,262,116C305.5,128,349,160,393,164C436.4,168,480,144,524,120C567.3,96,611,72,655,76C698.2,80,742,112,785,136C829.1,160,873,176,916,164C960,152,1004,112,1047,116C1090.9,120,1135,168,1178,168C1221.8,168,1265,120,1309,104C1352.7,88,1396,104,1440,124C1483.6,144,1527,168,1571,180C1614.5,192,1658,192,1702,172C1745.5,152,1789,112,1833,88C1876.4,64,1920,56,1964,80C2007.3,104,2051,160,2095,164C2138.2,168,2182,120,2225,84C2269.1,48,2313,24,2356,16C2400,8,2444,16,2487,40C2530.9,64,2575,104,2618,136C2661.8,168,2705,192,2749,196C2792.7,200,2836,184,2880,148C2923.6,112,2967,56,3011,32C3054.5,8,3098,16,3120,20L3141.8,24L3141.8,240L3120,240C3098.2,240,3055,240,3011,240C2967.3,240,2924,240,2880,240C2836.4,240,2793,240,2749,240C2705.5,240,2662,240,2618,240C2574.5,240,2531,240,2487,240C2443.6,240,2400,240,2356,240C2312.7,240,2269,240,2225,240C2181.8,240,2138,240,2095,240C2050.9,240,2007,240,1964,240C1920,240,1876,240,1833,240C1789.1,240,1745,240,1702,240C1658.2,240,1615,240,1571,240C1527.3,240,1484,240,1440,240C1396.4,240,1353,240,1309,240C1265.5,240,1222,240,1178,240C1134.5,240,1091,240,1047,240C1003.6,240,960,240,916,240C872.7,240,829,240,785,240C741.8,240,698,240,655,240C610.9,240,567,240,524,240C480,240,436,240,393,240C349.1,240,305,240,262,240C218.2,240,175,240,131,240C87.3,240,44,240,22,240L0,240Z"/></svg>