<svg xmlns="http://www.w3.org/2000/svg" version="1.1" xmlns:xlink="http://www.w3.org/1999/xlink" xmlns:svgjs="http://svgjs.com/svgjs" width="1418.3" height="1418.3"><svg version="1.1" id="SvgjsSvg1004" xmlns="http://www.w3.org/2000/svg" xmlns:xlink="http://www.w3.org/1999/xlink" x="0px" y="0px" viewBox="0 0 1418.3 1418.3" style="enable-background:new 0 0 1418.3 1418.3;" xml:space="preserve">
<style type="text/css">
	.st0{fill:#CC413C;stroke:#CC413C;stroke-width:0.25;stroke-miterlimit:10;}
	.st1{fill:#CC413C;}
	.st2{fill:#CC413C;stroke:#CC413C;stroke-width:4;stroke-miterlimit:10;}
</style>
<g id="SvgjsG1003">
	<g>
		<path class="st0" d="M846.1,659.7c27.5-71.1,33.6-119.6,11.6-142.8c-38.1-40.2-147.5,4-229.5,37.5
			c-75.8,30.9-181.7,82.9-298.3,172.1c-1.9,1.4-1.2,4.4,1.2,4.9c17.8,3,40.5,8.5,65.3,19.3c14.4,6.2,53.7,17.3,80,52
			c39,51.4,70.6,136.9,86.6,182.2c11.6,32.8-8.5,113.5-8.9,130.5c0,0.1,0,0.2,0,0.4c0.1,2.5,3.1,3.6,4.8,1.8l0,0
			c22.1-24.1,158.5-204.7,176.6-229.8C753.7,862.4,783.7,820.2,846.1,659.7L846.1,659.7z"></path>
		<path class="st1" d="M264.5,721L264.5,721C264.4,721.5,264.4,721.4,264.5,721z"></path>
		<path class="st1" d="M267,713.2l-2.5,7.8C264.5,721,265.4,718.2,267,713.2L267,713.2z"></path>
		<path class="st1" d="M802.3,1135.7c0,0,6.2,19.7,2.3,37c-0.8,3.5,2.8,6.5,6,5c3.2-1.4,7-3.5,10.2-6.1c0.1-0.1,0.2-0.2,0.4-0.4
			c1.1-1.1,2.2-2.3,3.2-3.5c0.1-0.1,0.2-0.2,0.4-0.4c10.2-14,47.4-79.6,66.5-116.4c0.1-0.2,0.2-0.5,0.4-0.8
			c12.7-44.1,28.2-130.4,50.8-249.4c29.7-156.7,7.4-156.7-1.8-163.2c-9.2-6.5-44.6,57.5-57.5,103.9c-13,46.4-69.5,126.1-79.7,149.3
			c-10.2,23.2-121.5,141-132.6,166.9c-0.2,0.7-0.6,1.3-1,2.2c-1.8,3.5,1.7,7.3,5.3,6.1c18.1-6.2,45-10.7,70,3.7
			C787.8,1094.4,802.3,1135.7,802.3,1135.7L802.3,1135.7z"></path>
		<path class="st1" d="M805.2,377.7c-18.3-10-103.4-41.9-225-56c-37.2-3.7-75.4-6-111.2-5.8c-149.3,6.8-291.3,92.1-295.3,94.5
			c-0.1,0-0.1,0.1-0.1,0.1l0,0c-1.6,0.7-1.3,3,0.5,3.2c29.8,3.8,95.8,17.5,114.7,64.6c24.5,61.4,27,50.6,17.7,103.5
			c-7.3,41.9-21,86.8-26.4,103.9c0,0-1.1,3.2-1.8,5.5c-0.2,0.8,0.2,1.9,1.1,2.2c0,0,55.8-36.3,70.1-46.5
			c28.9-21,106.8-81.8,256.4-156.6c134.5-67.2,206.2-95,203.3-108.7c0-0.2-0.1-0.5-0.2-0.6c-0.4-0.6-0.8-1.2-1.2-1.8
			c-0.1-0.1-0.2-0.2-0.4-0.4C806.7,378.6,806.1,378.1,805.2,377.7L805.2,377.7z"></path>
	</g>
	<g id="SvgjsG1002">
		<path class="st1" d="M1065,237.5c0,0-0.1,0.1-0.1,0.2C1064.8,237.7,1064.8,237.6,1065,237.5z"></path>
		<path class="st1" d="M1065.4,236.5c0,0.1-0.1,0.2-0.1,0.2C1065.4,236.8,1065.4,236.6,1065.4,236.5z"></path>
		<path class="st1" d="M1066.8,227.9c0-0.1,0-0.2,0-0.4C1066.8,227.5,1066.8,227.6,1066.8,227.9z"></path>
		<path class="st1" d="M1065.9,235.4c0,0.1-0.1,0.2-0.1,0.2C1065.8,235.5,1065.9,235.4,1065.9,235.4z"></path>
		<path class="st1" d="M1057,195.3c0,0,1.2,5.4,2.2,12c18.7-2.8,57.8-28,96.8-53.3c-0.1,0.5-0.2,1-0.4,1.4c3.5-11.5,5.2-39.9,0-54.3
			c-5.2-14.4-32.3-50.8-52.5-59.4s-27.7,0-27.7,0s2.3,11.5,22.5,32.9c20.2,21.4-9.8,62-9.8,62S1049.5,172.3,1057,195.3L1057,195.3z"></path>
		<path class="st1" d="M1064.1,238.6l0.1-0.1C1064.2,238.4,1064.2,238.4,1064.1,238.6z"></path>
		<path class="st1" d="M1066.6,222.2v-0.1C1066.6,222.1,1066.6,222.1,1066.6,222.2z"></path>
		<path class="st1" d="M1066.8,226.1c0-0.1,0-0.2,0-0.5C1066.8,225.7,1066.8,225.9,1066.8,226.1z"></path>
		<path class="st1" d="M1066.3,234.1c0,0,0,0.1,0,0.2C1066.2,234.2,1066.2,234.2,1066.3,234.1z"></path>
		<path class="st1" d="M1066.8,224.1c0-0.1,0-0.2,0-0.4C1066.8,223.9,1066.8,224,1066.8,224.1z"></path>
		<path class="st1" d="M1062.6,239.4c0.2-0.1,0.6-0.2,0.8-0.4L1062.6,239.4z"></path>
		<path class="st1" d="M1066.8,229.2c0,0.1,0,0.2,0,0.2C1066.8,229.4,1066.8,229.3,1066.8,229.2z"></path>
		<path class="st1" d="M1063.4,239L1063.4,239L1063.4,239z"></path>
	</g>
	<circle id="SvgjsCircle1001" class="st1" cx="1037" cy="493.5" r="25.1"></circle>
	<path id="SvgjsPath1000" class="st1" d="M1397.5,336.1c-3.6,4.4-25.7,28.3-48.8,28.3c-23.1,0-52.4-22.2-52.4-22.2s41.7-50.6,46.1-79
		c4.4-28.3-3.6-55,11.5-65.7c15.1-10.7,33.7-22.2,38.2-27.5c4.4-5.3-3-14.8-3-14.8s-127.6-56.2-178.3-25.3s-120,81.4-146.4,84.8
		c-26.4,3.2-93.5,33-120,53.9c-26.4,20.9-44.1,51.8-55,53.9c-11,2.2-49.6,16.6-124.4-14.3s-351.7-90.3-666,101.2
		c0,0-37.9,17.7-51.2,14.3c-13.2-3.2-36.3,7.7-36.3,7.7s-4.4,19.8,44.1,8.8c48.5-11,93.5-30.9,93.5-30.9s182.8-111.2,362.2-104.6
		c179.4,6.6,310.4,55,334.7,68.2c24.3,13.2-55,41.8-220.1,124.4s-251,149.7-282.9,172.8c-31.9,23.1-120,81.4-137.6,112.3
		c-17.7,30.9-38.5,57.3-35.2,88c3.2,30.9,11,0,11,0s34.1-79.3,58.4-95.8S371.8,647,627.3,536.8s307.2-60.5,238.8,115.6
		c-68.2,176.2-101.2,222.4-121,249.9S575.5,1128,551.4,1154.4c-24.3,26.4-55,65-81.4,80.3s-27.5,5.5-44.1,35.2
		c-16.6,29.7,63.9-33,81.4-40.7c17.7-7.7,110.1-107.8,123.3-138.7c13.2-30.9,145.3-170.6,157.4-198.1s79.3-122.2,94.6-177.2
		c15.4-55,57.3-131,68.2-123.3c10.9,7.7,37.5,7.7,2.2,193.7c-35.2,186-56.2,304.9-73.7,330.2c-17.7,25.3-51.8,104.6-88,123.3
		c-36.3,18.7-61,61.7-64.7,64.7c-3.7,3-35.3,66.2-25.9,75.4c9.4,9.1,18.6-37.3,29.5-49.6c11-12.2,52.1-60,90.7-95.6
		c38.5-35.5,80.9-91.3,98-155.6c17.2-64.4,39.6-186.6,45.9-198.1c6.2-11.5,32.8-142.8,37.2-156.1s-1.8-114.4,8.9-129.6
		c10.7-15.1,74.6-36.4,87.8-59.4c13.3-23.1,21.3-41.7,25.7-44.3c4.4-2.6,8.9,10.7,8,12.5c-0.8,1.8,12.5,11.5,47.1-40
		s43.5-63.9,66.5-52.4c23.1,11.5,68.3,36.4,85.1,29.3c16.8-7.1,64.7-30.1,72.8-66.5C1411.8,337.9,1401.1,331.6,1397.5,336.1
		L1397.5,336.1z M1036.3,528.4c-19.2,0-34.8-15.6-34.8-34.8c0-19.2,15.6-34.8,34.8-34.8c19.2,0,34.8,15.6,34.8,34.8
		C1071.1,512.8,1055.5,528.4,1036.3,528.4z"></path>
	<path class="st2" d="M212,430.1c1.6,0.4,1.9,2.3,0.6,3.1c-5.3,3.7-15.9,11.3-21.5,17.1c-7.8,7.9-12.1,18.4-31.7,31.3
		c-19.5,13-32.3,11.8-36,8.9c-3.7-2.9,7.4-4.9,22.1-16.2c14.7-11.4,15.3-15.5,20.3-26.1c4.4-9.2,16-20.2,18.9-22.8
		c0.4-0.4,1-0.5,1.6-0.5C200.6,427.8,208.2,429.2,212,430.1L212,430.1z"></path>
	<path class="st1" d="M341,740.6c-1.1-0.2-2.2,0.1-3,0.8c-5.3,5.6-25.8,28.1-28.8,37.5c-3.5,10.8-19.6,40.2-23.8,43.7
		s-14.8,19.2-10.8,19.9c4,0.8,21.5-2.2,30.5-16.8c9-14.7,12.7-21.7,19.9-31.3c7.2-9.6,10.3-22.9,24.5-33.1
		c6.1-4.3,11.3-7.3,15.3-9.2c2.5-1.2,2.2-4.9-0.6-5.6c-2.8-1.3-6.2-2.8-10.4-4C348.9,741.1,344.5,740.7,341,740.6L341,740.6z"></path>
	<path class="st2" d="M795.1,1167.2c0,2.3,0,4.7-0.4,7.9v0.1c-1.1,7.1-14.2,9.8-24,13.8c-4.3,1.7-13.4,8-30.7,21.7
		c-6.1,4.8-26.4,23.4-37.2,20.4s20.5-26.5,24.7-29.7c4.2-3.1,10.6-8.9,31.3-25.8c25.7-21.1,25.1-39.3,25.1-40.2l0,0
		c-0.1-1.9,1.2-4.1,2-4.2c1.8-0.4,4.8,6.4,6.5,11.8c1.6,5,1.8,9.2,2.3,14.3C795,1160.1,795,1162.5,795.1,1167.2L795.1,1167.2z"></path>
	<path class="st2" d="M553.8,1038.4c0.8-8.2,0.6-15.4,0-21.4c0-0.1-0.1-0.1-0.2-0.1c-8.6,12.1-23.1,32.1-28.7,36.7
		c-8.3,7-32.3,28.5-36,30.5c-3.7,2-42.3,29.8-32.8,33c9.5,3.2,29.2-5.8,41.2-13.6c12-7.7,22.5-19.7,27.7-23.2
		c4-2.6,17.3-15.7,24.4-21.4c0,0,0,0,0-0.1C551.2,1053.4,552.9,1046.5,553.8,1038.4L553.8,1038.4z"></path>
</g>
</svg><style>@media (prefers-color-scheme: light) { :root { filter: none; } }
</style></svg>