<svg width="85" height="91" viewBox="0 0 85 91" fill="none" xmlns="http://www.w3.org/2000/svg">
<path d="M9.5 34.5C16.75 28.4355 7.11705 27.7931 9.5 20C11.8829 12.2069 8.22696 12.2842 5.5 5C1.60316 -5.4092 9.49999 -14.5 9.49999 -14.5L85.9999 -14.5L85.9999 80.6389C85.9999 80.6389 86.9999 85.8023 84.9999 87C77.539 91.4679 77.2421 80.6155 67.5 80.6389C57.7579 80.6624 57.3225 91.6342 43 90C28.6775 88.3658 35.5211 72 33 70C28.4306 66.375 30.2648 66.2756 17 67.5C9.66587 68.177 2.44095 57.4003 1.5 50.5C5.72313e-07 39.5 2.83001 40.0794 9.5 34.5Z" fill="#0D1D29" stroke="#0D1D29"/>
</svg>
