<svg width="74" height="74" viewBox="0 0 74 74" fill="none" xmlns="http://www.w3.org/2000/svg">
<path d="M69.6734 53.8382C68.2303 56.6143 66.4135 59.2389 64.2298 61.6333L63.4909 60.9595C62.4616 62.0881 61.3483 63.1645 60.1516 64.1799C58.9548 65.1953 57.7116 66.1185 56.4304 66.9503L56.975 67.789C54.2569 69.5537 51.3715 70.9189 48.3975 71.8907L48.0869 70.9402C45.1202 71.9096 42.0625 72.4766 38.9965 72.6475L39.0521 73.6459C35.8709 73.8232 32.681 73.5856 29.5697 72.9397L29.7729 71.9606C26.7594 71.3351 23.8225 70.3159 21.0459 68.91L20.5941 69.8022C17.7986 68.3868 15.1603 66.5899 12.7599 64.4178L13.4309 63.6763C12.2991 62.6522 11.2215 61.542 10.2069 60.3462C9.19231 59.1505 8.27241 57.9065 7.44624 56.6231L6.6054 57.1643C4.85314 54.4423 3.50984 51.5466 2.56847 48.5579L3.52227 48.2575C2.58725 45.289 2.05992 42.2253 1.93341 39.1502L0.934249 39.1913C0.803629 36.0164 1.08857 32.8303 1.78149 29.7204L2.75756 29.9378C3.42537 26.9406 4.48269 24.0161 5.92226 21.2468L5.03498 20.7856C6.47809 18.0095 8.2949 15.3849 10.4786 12.9904L11.2175 13.6643C12.2467 12.5357 13.36 11.4593 14.5568 10.4439C15.7535 9.42842 16.9968 8.50524 18.2779 7.67349L17.7334 6.83476C20.4515 5.07009 23.3368 3.70487 26.3109 2.73305L26.6215 3.68359C29.5882 2.71415 32.6458 2.14712 35.7119 1.97626L35.6562 0.977814C38.8375 0.800534 42.0274 1.03817 45.1387 1.68401L44.9354 2.66314C47.949 3.28868 50.8858 4.30782 53.6625 5.71372L54.1142 4.82156C56.9097 6.23701 59.5481 8.03388 61.9484 10.206L61.2775 10.9475C62.4092 11.9716 63.4869 13.0818 64.5015 14.2775C65.5161 15.4733 66.436 16.7173 67.2621 18.0007L68.103 17.4594C69.8552 20.1815 71.1985 23.0772 72.1399 26.0658L71.1861 26.3663C72.1211 29.3348 72.6484 32.3984 72.775 35.4736L73.7741 35.4325C73.9047 38.6074 73.6198 41.7934 72.9269 44.9034L71.9508 44.6859C71.283 47.6832 70.2257 50.6077 68.7861 53.377L69.6734 53.8382Z" stroke="white" stroke-width="2" stroke-dasharray="10 10"/>
</svg>
