<?xml version="1.0" encoding="UTF-8"?>
<svg xmlns="http://www.w3.org/2000/svg" viewBox="0 0 1418.35 1418.35">
  <defs>
    <style>
      .cls-1 {
        fill: none;
        stroke-width: 10px;
      }

      .cls-1, .cls-2, .cls-3 {
        stroke: #000;
        stroke-miterlimit: 10;
      }

      .cls-2 {
        stroke-width: .25px;
      }

      .cls-3 {
        stroke-width: 4px;
      }

      .cls-4 {
        stroke-width: 0px;
      }
    </style>
  </defs>
  <g id="Ebene_3" data-name="Ebene 3">
    <rect class="cls-1" x="206.69" y="251.84" width="924.17" height="924.17"/>
  </g>
  <g id="traced">
    <g>
      <path class="cls-2" d="m747.92,701.65c15.96-41.18,19.49-69.26,6.78-82.72-22.05-23.33-85.39,2.3-132.93,21.68-43.88,17.89-105.21,47.97-172.77,99.67-1.1.84-.68,2.6.69,2.83,10.27,1.74,23.41,4.96,37.83,11.18,8.36,3.61,31.1,10.01,46.36,30.11,22.62,29.78,40.87,79.32,50.16,105.51,6.74,19-4.97,65.75-5.16,75.59,0,.07,0,.13,0,.2.04,1.44,1.8,2.09,2.77,1.03h0c12.79-13.95,91.85-118.59,102.32-133.13,10.46-14.53,27.9-38.95,63.95-131.96Z"/>
      <path class="cls-4" d="m411.06,737.2h-.02c-.08.29-.06.24.02,0Z"/>
      <path class="cls-4" d="m412.51,732.66l-1.47,4.53s.55-1.64,1.47-4.53h0Z"/>
      <path class="cls-4" d="m722.61,977.42s3.63,11.41,1.31,21.39c-.47,2.04,1.58,3.75,3.49,2.89s4.03-2.02,5.9-3.56c.08-.07.16-.14.24-.22.63-.64,1.27-1.31,1.89-2.01.07-.08.13-.15.19-.23,5.92-8.15,27.47-46.1,38.54-67.37.08-.15.14-.31.19-.47,7.35-25.5,16.38-75.54,29.43-144.49,17.19-90.78,4.3-90.78-1.07-94.54-5.37-3.76-25.78,33.31-33.31,60.16-7.52,26.86-40.29,73.06-46.2,86.49-5.91,13.43-70.37,81.65-76.82,96.69-.17.39-.36.79-.57,1.22-1.02,2.02.95,4.26,3.09,3.52,10.47-3.62,26.06-6.22,40.52,2.17,24.77,14.38,33.16,38.36,33.16,38.36Z"/>
      <path class="cls-4" d="m724.27,538.32c-10.57-5.77-59.89-24.31-130.35-32.4-21.56-2.17-43.67-3.48-64.39-3.32-86.43,3.97-168.75,53.37-171.06,54.76-.04.02-.06.04-.1.05,0,0,0,0,0,0-.93.4-.74,1.77.26,1.9,17.27,2.23,55.51,10.18,66.4,37.41,14.21,35.53,15.63,29.27,10.23,59.97-4.27,24.25-12.18,50.31-15.32,60.18,0,0-.6,1.91-1.01,3.18-.17.52.12,1.08.63,1.25,0,0,32.37-20.98,40.59-26.94,16.76-12.14,61.84-47.39,148.54-90.74,77.9-38.95,119.4-55.04,117.8-62.93-.03-.13-.09-.25-.16-.36-.23-.35-.46-.68-.68-1.01-.05-.08-.11-.15-.18-.21-.32-.28-.71-.55-1.19-.81Z"/>
    </g>
    <g id="Ear">
      <path class="cls-4" d="m874.74,457.12s-.05.09-.08.13c.03-.04.05-.09.08-.13Z"/>
      <path class="cls-4" d="m875.04,456.55c-.02.05-.05.11-.07.16.02-.05.05-.1.07-.16Z"/>
      <path class="cls-4" d="m875.82,451.49c0-.08,0-.16,0-.24,0,.08,0,.16,0,.24Z"/>
      <path class="cls-4" d="m875.29,455.89c-.02.06-.04.11-.05.16.02-.05.04-.11.05-.16Z"/>
      <path class="cls-4" d="m870.14,432.65s.71,3.13,1.26,6.99c10.84-1.59,33.47-16.18,56.06-30.89-.08.29-.15.58-.23.84,2.01-6.68,3.01-23.06,0-31.41-3.01-8.35-18.71-29.41-30.41-34.42-11.7-5.01-16.04,0-16.04,0,0,0,1.34,6.68,13.03,19.05,11.7,12.36-5.68,35.9-5.68,35.9,0,0-22.39,20.58-17.98,33.94Z"/>
      <path class="cls-4" d="m874.29,457.69s.05-.05.07-.08c-.02.03-.05.06-.07.08Z"/>
      <path class="cls-4" d="m875.7,448.22s0-.06,0-.09c0,.03,0,.06,0,.09Z"/>
      <path class="cls-4" d="m875.81,450.47c0-.08,0-.16,0-.25,0,.08,0,.16,0,.25Z"/>
      <path class="cls-4" d="m875.48,455.15s-.02.08-.03.12c0-.04.02-.08.03-.12Z"/>
      <path class="cls-4" d="m875.77,449.39c0-.07,0-.14-.01-.21,0,.07,0,.14.01.21Z"/>
      <path class="cls-4" d="m873.37,458.23c.17-.05.34-.12.49-.21l-.49.21Z"/>
      <path class="cls-4" d="m875.8,452.3c0,.06,0,.12,0,.17,0-.06,0-.11,0-.17Z"/>
      <polygon class="cls-4" points="873.86 458.02 873.86 458.02 873.86 458.02 873.86 458.02"/>
    </g>
    <circle id="Eye" class="cls-4" cx="858.52" cy="605.37" r="14.54"/>
    <path id="Body" class="cls-4" d="m1067.35,514.18c-2.06,2.57-14.9,16.45-28.27,16.45s-30.32-12.85-30.32-12.85c0,0,24.15-29.29,26.72-45.74,2.57-16.45-2.06-31.86,6.68-38.03,8.74-6.17,19.53-12.85,22.1-15.93,2.57-3.08-1.71-8.58-1.71-8.58,0,0-73.97-32.52-103.3-14.67-29.33,17.85-69.51,47.19-84.81,49.1-15.3,1.91-54.2,19.13-69.51,31.25-15.3,12.12-25.51,29.97-31.88,31.25-6.38,1.28-28.7,9.57-72.06-8.29-43.36-17.85-203.74-52.29-385.79,58.67,0,0-22,10.2-29.65,8.29-7.65-1.91-21.04,4.46-21.04,4.46,0,0-2.55,11.48,25.51,5.1,28.06-6.38,54.2-17.85,54.2-17.85,0,0,105.85-64.4,209.79-60.58,103.94,3.83,179.82,31.88,193.85,39.54,14.03,7.65-31.88,24.23-127.53,72.06-95.65,47.83-145.39,86.72-163.88,100.11-18.49,13.39-69.51,47.19-79.71,65.04-10.2,17.85-22.32,33.16-20.41,51.01,1.91,17.85,6.38,0,6.38,0,0,0,19.77-45.91,33.8-55.48,14.03-9.57,76.52-73.97,224.46-137.74,147.94-63.77,177.91-35.07,138.37,66.96-39.54,102.03-58.67,128.81-70.14,144.75-11.48,15.94-98.2,130.72-112.23,146.03-14.03,15.3-31.88,37.62-47.19,46.55-15.3,8.93-15.94,3.19-25.51,20.41-9.57,17.22,36.98-19.13,47.19-23.59,10.2-4.46,63.77-62.49,71.42-80.35,7.65-17.85,84.17-98.84,91.19-114.78,7.01-15.94,45.91-70.78,54.84-102.66,8.93-31.88,33.16-75.88,39.54-71.42,6.38,4.46,21.68,4.46,1.28,112.23-20.41,107.77-32.52,176.63-42.72,191.3-10.2,14.67-29.97,60.58-51.01,71.42-21.04,10.84-35.34,35.75-37.47,37.52s-20.44,38.34-15.01,43.66c5.43,5.32,10.75-21.65,17.14-28.75,6.39-7.1,30.17-34.79,52.53-55.37s46.85-52.89,56.79-90.16c9.94-37.27,22.98-108.08,26.58-114.76,3.6-6.68,19.02-82.74,21.59-90.45,2.57-7.71-1.03-66.3,5.14-75.03,6.17-8.74,43.17-21.07,50.88-34.43,7.71-13.36,12.33-24.15,14.9-25.7,2.57-1.54,5.14,6.17,4.63,7.2-.51,1.03,7.2,6.68,27.24-23.13,20.04-29.81,25.18-37,38.55-30.32,13.36,6.68,39.57,21.07,49.34,16.96,9.76-4.11,37.52-17.47,42.14-38.55,4.63-21.07-1.54-24.67-3.6-22.1Zm-209.26,111.47c-11.15,0-20.19-9.04-20.19-20.19s9.04-20.19,20.19-20.19,20.19,9.04,20.19,20.19-9.04,20.19-20.19,20.19Z"/>
    <path class="cls-3" d="m380.64,568.69c.87.19,1.1,1.32.37,1.83-3.08,2.16-9.18,6.57-12.44,9.89-4.49,4.58-7.06,10.67-18.36,18.16-11.3,7.49-18.71,6.81-20.84,5.12s4.31-2.82,12.81-9.4c8.5-6.59,8.81-8.94,11.77-15.07,2.58-5.35,9.24-11.69,10.91-13.23.24-.22.57-.31.89-.25,8.31,1.57,12.66,2.46,14.89,2.95Z"/>
    <path class="cls-4" d="m455.36,748.53c-.62-.16-1.27.04-1.71.5-3.04,3.27-14.94,16.27-16.72,21.69-2.05,6.23-11.33,23.31-13.75,25.32-2.41,2.02-8.57,11.1-6.25,11.58,2.32.48,12.45-1.28,17.66-9.74,5.21-8.47,7.35-12.59,11.53-18.13,4.19-5.55,5.98-13.3,14.19-19.2,3.52-2.53,6.55-4.24,8.86-5.37,1.47-.72,1.25-2.88-.34-3.28-1.6-.79-3.63-1.63-6.03-2.28-2.87-.77-5.42-1.03-7.43-1.1Z"/>
    <path class="cls-3" d="m718.42,995.61c.02,1.3.02,2.74-.22,4.59,0,.03,0,.05,0,.05-.61,4.08-8.21,5.68-13.92,7.97-2.49,1-7.77,4.63-17.78,12.59-3.53,2.81-15.31,13.53-21.55,11.82-6.24-1.71,11.92-15.4,14.36-17.17,2.44-1.77,6.15-5.12,18.14-14.98,14.91-12.26,14.55-22.75,14.52-23.3,0,0,0-.01,0-.02-.05-1.1.67-2.34,1.21-2.44,1.06-.2,2.81,3.72,3.74,6.83.88,2.92,1.07,5.33,1.31,8.31.14,1.68.16,3.03.2,5.74Z"/>
    <path class="cls-3" d="m578.66,921.04c.5-4.73.38-8.93.03-12.41,0-.07-.1-.1-.14-.04-5,7.03-13.37,18.54-16.63,21.31-4.77,4.06-18.73,16.48-20.88,17.68-2.15,1.19-24.5,17.26-18.99,19.16,5.51,1.9,16.91-3.37,23.88-7.83,6.98-4.46,13.01-11.42,16.08-13.43,2.32-1.53,10-9.08,14.1-12.38.01,0,.02-.02.02-.04,1.06-3.33,2.03-7.37,2.52-12.02Z"/>
  </g>
</svg>