<?xml version="1.0" encoding="utf-8"?>
<!-- Generator: Adobe Illustrator 28.0.0, SVG Export Plug-In . SVG Version: 6.00 Build 0)  -->
<svg version="1.1" id="Ebene_1" xmlns="http://www.w3.org/2000/svg" xmlns:xlink="http://www.w3.org/1999/xlink" x="0px" y="0px"
     viewBox="0 0 1418.3 1418.3" style="enable-background:new 0 0 1418.3 1418.3;" xml:space="preserve">
<style type="text/css">
	.st0{fill:none;stroke:#000;stroke-width:10;stroke-miterlimit:10;}
	.st1{fill:#000;stroke:#000;stroke-width:0.25;stroke-miterlimit:10;}
	.st2{fill:#000;}
	.st3{fill:#000;stroke:#000;stroke-width:4;stroke-miterlimit:10;}
</style>
  <g id="Ebene_3">
	<rect x="44.9" y="44.9" class="st0" width="1328.6" height="1328.6"/>
</g>
  <g id="traced">
	<g>
		<path class="st1" d="M823.3,667.7c22.9-59.2,28-99.6,9.7-118.9c-31.7-33.5-122.8,3.3-191.1,31.2c-63.1,25.7-151.3,69-248.4,143.3
			c-1.6,1.2-1,3.7,1,4.1c14.8,2.5,33.7,7.1,54.4,16.1c12,5.2,44.7,14.4,66.6,43.3c32.5,42.8,58.8,114,72.1,151.7
			c9.7,27.3-7.1,94.5-7.4,108.7c0,0.1,0,0.2,0,0.3c0.1,2.1,2.6,3,4,1.5l0,0c18.4-20.1,132-170.5,147.1-191.4
			C746.4,836.5,771.4,801.4,823.3,667.7L823.3,667.7z"/>
      <path class="st2" d="M339,718.8L339,718.8C338.9,719.2,338.9,719.1,339,718.8z"/>
      <path class="st2" d="M341.1,712.3l-2.1,6.5C339,718.8,339.8,716.4,341.1,712.3L341.1,712.3z"/>
      <path class="st2" d="M786.9,1064.1c0,0,5.2,16.4,1.9,30.8c-0.7,2.9,2.3,5.4,5,4.2s5.8-2.9,8.5-5.1c0.1-0.1,0.2-0.2,0.3-0.3
			c0.9-0.9,1.8-1.9,2.7-2.9c0.1-0.1,0.2-0.2,0.3-0.3c8.5-11.7,39.5-66.3,55.4-96.9c0.1-0.2,0.2-0.4,0.3-0.7
			c10.6-36.7,23.5-108.6,42.3-207.7c24.7-130.5,6.2-130.5-1.5-135.9c-7.7-5.4-37.1,47.9-47.9,86.5c-10.8,38.6-57.9,105-66.4,124.3
			c-8.5,19.3-101.2,117.4-110.4,139c-0.2,0.6-0.5,1.1-0.8,1.8c-1.5,2.9,1.4,6.1,4.4,5.1c15.1-5.2,37.5-8.9,58.3,3.1
			C774.8,1029.7,786.9,1064.1,786.9,1064.1L786.9,1064.1z"/>
      <path class="st2" d="M789.3,432.9c-15.2-8.3-86.1-34.9-187.4-46.6c-31-3.1-62.8-5-92.6-4.8c-124.3,5.7-242.6,76.7-245.9,78.7
			c-0.1,0-0.1,0.1-0.1,0.1l0,0c-1.3,0.6-1.1,2.5,0.4,2.7c24.8,3.2,79.8,14.6,95.5,53.8c20.4,51.1,22.5,42.1,14.7,86.2
			c-6.1,34.9-17.5,72.3-22,86.5c0,0-0.9,2.7-1.5,4.6c-0.2,0.7,0.2,1.6,0.9,1.8c0,0,46.5-30.2,58.4-38.7
			c24.1-17.5,88.9-68.1,213.5-130.4c112-56,171.7-79.1,169.3-90.5c0-0.2-0.1-0.4-0.2-0.5c-0.3-0.5-0.7-1-1-1.5
			c-0.1-0.1-0.2-0.2-0.3-0.3C790.5,433.6,790,433.2,789.3,432.9L789.3,432.9z"/>
	</g>
    <g id="Ear">
		<path class="st2" d="M1005.6,316.1c0,0-0.1,0.1-0.1,0.2C1005.5,316.3,1005.5,316.2,1005.6,316.1z"/>
      <path class="st2" d="M1006,315.3c0,0.1-0.1,0.2-0.1,0.2C1006,315.5,1006,315.4,1006,315.3z"/>
      <path class="st2" d="M1007.1,308.1c0-0.1,0-0.2,0-0.3C1007.1,307.8,1007.1,307.9,1007.1,308.1z"/>
      <path class="st2" d="M1006.4,314.4c0,0.1-0.1,0.2-0.1,0.2C1006.3,314.5,1006.4,314.4,1006.4,314.4z"/>
      <path class="st2" d="M999,281c0,0,1,4.5,1.8,10c15.6-2.3,48.1-23.3,80.6-44.4c-0.1,0.4-0.2,0.8-0.3,1.2c2.9-9.6,4.3-33.2,0-45.2
			c-4.3-12-26.9-42.3-43.7-49.5c-16.8-7.2-23.1,0-23.1,0s1.9,9.6,18.7,27.4c16.8,17.8-8.2,51.6-8.2,51.6S992.7,261.8,999,281
			L999,281z"/>
      <path class="st2" d="M1004.9,317c0,0,0.1-0.1,0.1-0.1C1005,316.9,1005,316.9,1004.9,317z"/>
      <path class="st2" d="M1007,303.4c0,0,0-0.1,0-0.1C1007,303.3,1007,303.3,1007,303.4z"/>
      <path class="st2" d="M1007.1,306.6c0-0.1,0-0.2,0-0.4C1007.1,306.3,1007.1,306.5,1007.1,306.6z"/>
      <path class="st2" d="M1006.7,313.3c0,0,0,0.1,0,0.2C1006.6,313.4,1006.6,313.4,1006.7,313.3z"/>
      <path class="st2" d="M1007.1,305c0-0.1,0-0.2,0-0.3C1007.1,304.8,1007.1,304.9,1007.1,305z"/>
      <path class="st2" d="M1003.6,317.7c0.2-0.1,0.5-0.2,0.7-0.3L1003.6,317.7z"/>
      <path class="st2" d="M1007.1,309.2c0,0.1,0,0.2,0,0.2C1007.1,309.4,1007.1,309.3,1007.1,309.2z"/>
      <polygon class="st2" points="1004.3,317.4 1004.3,317.4 1004.3,317.4 		"/>
	</g>
    <circle id="Eye" class="st2" cx="982.3" cy="529.3" r="20.9"/>
    <path id="Body" class="st2" d="M1282.5,398.2c-3,3.7-21.4,23.6-40.6,23.6c-19.2,0-43.6-18.5-43.6-18.5s34.7-42.1,38.4-65.8
		c3.7-23.6-3-45.8,9.6-54.7c12.6-8.9,28.1-18.5,31.8-22.9c3.7-4.4-2.5-12.3-2.5-12.3s-106.3-46.8-148.5-21.1
		c-42.2,25.7-99.9,67.8-121.9,70.6c-22,2.7-77.9,27.5-99.9,44.9c-22,17.4-36.7,43.1-45.8,44.9c-9.2,1.8-41.3,13.8-103.6-11.9
		c-62.3-25.7-292.9-75.2-554.6,84.3c0,0-31.6,14.7-42.6,11.9c-11-2.7-30.2,6.4-30.2,6.4s-3.7,16.5,36.7,7.3s77.9-25.7,77.9-25.7
		s152.2-92.6,301.6-87.1c149.4,5.5,258.5,45.8,278.7,56.8c20.2,11-45.8,34.8-183.3,103.6s-209,124.7-235.6,143.9
		c-26.6,19.2-99.9,67.8-114.6,93.5c-14.7,25.7-32.1,47.7-29.3,73.3c2.7,25.7,9.2,0,9.2,0s28.4-66,48.6-79.8
		c20.2-13.8,110-106.3,322.7-198s255.8-50.4,198.9,96.3c-56.8,146.7-84.3,185.2-100.8,208.1c-16.5,22.9-141.2,187.9-161.3,209.9
		c-20.2,22-45.8,54.1-67.8,66.9c-22,12.8-22.9,4.6-36.7,29.3s53.2-27.5,67.8-33.9c14.7-6.4,91.7-89.8,102.7-115.5
		c11-25.7,121-142.1,131.1-165c10.1-22.9,66-101.8,78.8-147.6c12.8-45.8,47.7-109.1,56.8-102.7s31.2,6.4,1.8,161.3
		c-29.3,154.9-46.8,253.9-61.4,275c-14.7,21.1-43.1,87.1-73.3,102.7c-30.2,15.6-50.8,51.4-53.9,53.9s-29.4,55.1-21.6,62.8
		c7.8,7.6,15.5-31.1,24.6-41.3c9.2-10.2,43.4-50,75.5-79.6c32.1-29.6,67.4-76,81.6-129.6c14.3-53.6,33-155.4,38.2-165
		c5.2-9.6,27.3-118.9,31-130c3.7-11.1-1.5-95.3,7.4-107.9c8.9-12.6,62.1-30.3,73.1-49.5c11.1-19.2,17.7-34.7,21.4-36.9
		c3.7-2.2,7.4,8.9,6.7,10.4c-0.7,1.5,10.4,9.6,39.2-33.3s36.2-53.2,55.4-43.6c19.2,9.6,56.9,30.3,70.9,24.4
		c14-5.9,53.9-25.1,60.6-55.4C1294.4,399.7,1285.5,394.5,1282.5,398.2L1282.5,398.2z M981.7,558.4c-16,0-29-13-29-29
		c0-16,13-29,29-29c16,0,29,13,29,29C1010.7,545.4,997.7,558.4,981.7,558.4z"/>
    <path class="st3" d="M295.3,476.5c1.3,0.3,1.6,1.9,0.5,2.6c-4.4,3.1-13.2,9.4-17.9,14.2c-6.5,6.6-10.1,15.3-26.4,26.1
		c-16.2,10.8-26.9,9.8-30,7.4c-3.1-2.4,6.2-4.1,18.4-13.5c12.2-9.5,12.7-12.9,16.9-21.7c3.7-7.7,13.3-16.8,15.7-19
		c0.3-0.3,0.8-0.4,1.3-0.4C285.8,474.6,292.1,475.8,295.3,476.5L295.3,476.5z"/>
    <path class="st2" d="M402.7,735.1c-0.9-0.2-1.8,0.1-2.5,0.7c-4.4,4.7-21.5,23.4-24,31.2c-2.9,9-16.3,33.5-19.8,36.4
		c-3.5,2.9-12.3,16-9,16.6c3.3,0.7,17.9-1.8,25.4-14c7.5-12.2,10.6-18.1,16.6-26.1c6-8,8.6-19.1,20.4-27.6c5.1-3.6,9.4-6.1,12.7-7.7
		c2.1-1,1.8-4.1-0.5-4.7c-2.3-1.1-5.2-2.3-8.7-3.3C409.3,735.5,405.6,735.2,402.7,735.1L402.7,735.1z"/>
    <path class="st3" d="M780.9,1090.3c0,1.9,0,3.9-0.3,6.6c0,0,0,0.1,0,0.1c-0.9,5.9-11.8,8.2-20,11.5c-3.6,1.4-11.2,6.7-25.6,18.1
		c-5.1,4-22,19.5-31,17s17.1-22.1,20.6-24.7s8.8-7.4,26.1-21.5c21.4-17.6,20.9-32.7,20.9-33.5c0,0,0,0,0,0c-0.1-1.6,1-3.4,1.7-3.5
		c1.5-0.3,4,5.3,5.4,9.8c1.3,4.2,1.5,7.7,1.9,11.9C780.8,1084.4,780.8,1086.4,780.9,1090.3L780.9,1090.3z"/>
    <path class="st3" d="M579.9,983.1c0.7-6.8,0.5-12.8,0-17.8c0-0.1-0.1-0.1-0.2-0.1c-7.2,10.1-19.2,26.7-23.9,30.6
		c-6.9,5.8-26.9,23.7-30,25.4c-3.1,1.7-35.2,24.8-27.3,27.5c7.9,2.7,24.3-4.8,34.3-11.3c10-6.4,18.7-16.4,23.1-19.3
		c3.3-2.2,14.4-13.1,20.3-17.8c0,0,0,0,0-0.1C577.8,995.6,579.2,989.8,579.9,983.1L579.9,983.1z"/>
</g>
</svg>
