<svg width="129" height="461" viewBox="0 0 129 461" fill="none" xmlns="http://www.w3.org/2000/svg">
<path d="M21.2698 125.703C34.1434 103.331 58.4398 99.6559 74.7759 74.741C91.112 49.826 63.1826 53.5171 56.8589 28.6021C54.9393 21.0388 56.8589 5.99413 67.3983 -1.38807C74.2634 -6.19662 86.3693 -12 86.3693 -12H128V460H102.887H78.6463C78.6463 450.74 84.8958 453.006 78.6463 425.701C75.3029 411.093 59.4749 400.535 56.8589 385.255C54.243 369.976 75.8299 341.423 67.3983 322.506C59.8414 305.552 33.5031 275.401 22.0788 262.065C7.85062 245.455 1 225.615 1 204.852C1 183.613 7.85062 149.024 21.2698 125.703Z" fill="#0D1D29" stroke="#0D1D29"/>
</svg>
